<?xml version="1.0" standalone="no"?>
<!DOCTYPE svg PUBLIC "-//W3C//DTD SVG 20010904//EN"
 "http://www.w3.org/TR/2001/REC-SVG-20010904/DTD/svg10.dtd">
<svg version="1.0" xmlns="http://www.w3.org/2000/svg"
 width="752.000000pt" height="752.000000pt" viewBox="0 0 752.000000 752.000000"
 preserveAspectRatio="xMidYMid meet">

<g transform="translate(0.000000,752.000000) scale(0.100000,-0.100000)"
fill="#000000" stroke="none">
<path d="M3590 6094 c-288 -33 -423 -64 -610 -141 -308 -127 -583 -384 -681
-636 -61 -160 -80 -292 -73 -509 l4 -133 -30 60 c-71 144 -101 401 -66 575 61
303 268 562 581 727 55 29 97 53 93 53 -4 0 -53 -20 -109 -45 -179 -79 -311
-168 -425 -287 -88 -91 -124 -145 -179 -261 -53 -114 -82 -226 -99 -382 l-13
-120 -24 50 c-20 42 -24 65 -24 145 0 116 19 179 129 425 33 72 34 77 11 50
-62 -74 -148 -271 -194 -447 -57 -216 -65 -282 -65 -543 0 -254 -1 -251 59
-470 21 -79 27 -123 28 -210 2 -180 -34 -281 -174 -483 -69 -101 -82 -128 -86
-169 -5 -45 -2 -53 27 -87 18 -20 66 -55 107 -77 100 -55 113 -74 113 -161 l0
-70 55 -53 55 -52 -2 -84 c-2 -78 0 -88 31 -146 32 -60 34 -68 36 -175 1 -101
4 -119 28 -165 47 -91 121 -131 256 -140 100 -6 146 4 419 92 95 30 186 55
203 55 66 0 111 -104 110 -258 0 -158 -46 -268 -188 -456 -64 -85 -80 -112
-71 -123 12 -15 10 -17 203 136 182 143 243 199 308 281 109 136 157 268 157
430 0 200 -55 319 -279 598 -300 376 -372 475 -490 675 -62 106 -144 267 -138
273 2 2 25 -22 50 -55 76 -96 324 -293 431 -340 191 -86 339 -115 546 -108
198 7 340 44 525 135 204 101 407 281 483 429 107 207 147 360 145 563 -1 110
-5 153 -26 231 -81 307 -242 530 -480 663 -63 35 -196 90 -203 83 -2 -2 40
-33 94 -70 197 -133 300 -243 377 -402 88 -181 120 -346 112 -579 -6 -177 -27
-269 -87 -391 -137 -274 -462 -482 -845 -541 -119 -19 -300 -14 -390 10 -93
25 -238 102 -344 181 -117 88 -304 279 -349 357 -260 443 -193 1031 163 1426
65 72 192 173 302 239 546 327 1219 270 1698 -144 274 -237 405 -528 405 -902
0 -429 -119 -794 -401 -1234 -91 -142 -158 -231 -404 -537 -160 -198 -212
-280 -251 -395 -25 -70 -28 -95 -28 -205 -1 -112 2 -134 27 -205 54 -152 147
-274 322 -417 131 -108 299 -237 308 -238 4 0 10 7 13 15 4 9 -16 43 -51 86
-84 104 -158 226 -184 305 -49 144 -33 353 30 417 27 26 34 29 74 23 24 -4 97
-25 162 -47 256 -86 328 -102 433 -97 107 6 158 23 208 71 61 58 75 98 82 237
6 116 9 129 39 185 31 56 33 65 27 127 -7 81 1 103 60 152 44 37 44 37 44 102
0 87 16 112 104 162 81 46 141 102 150 138 11 43 -12 99 -81 195 -91 127 -147
240 -168 334 -26 115 -17 276 24 415 16 58 35 134 41 170 54 339 -20 812 -173
1116 -40 79 -97 168 -97 152 0 -3 23 -56 50 -117 91 -201 105 -251 105 -376 0
-99 -3 -115 -25 -155 l-25 -45 -2 40 c-11 174 -45 329 -98 450 -94 213 -296
407 -552 531 -118 57 -129 56 -28 -2 383 -219 586 -583 545 -979 -14 -136 -67
-320 -99 -339 -4 -3 -7 86 -7 197 0 187 -2 209 -26 299 -69 255 -233 469 -489
638 -101 67 -262 151 -356 186 -84 32 -277 78 -413 99 -101 15 -417 28 -490
19z"/>
<path d="M3455 5155 c-327 -72 -545 -342 -545 -675 0 -123 25 -225 86 -350 96
-196 269 -319 512 -366 183 -35 363 -5 552 92 216 111 321 240 381 464 33 122
33 331 1 444 -41 143 -117 269 -199 332 l-38 29 23 -30 c148 -194 191 -322
178 -526 -19 -303 -151 -511 -403 -634 -118 -57 -225 -78 -373 -72 -92 4 -142
11 -190 27 -227 76 -369 220 -426 430 -28 100 -25 266 4 353 64 185 255 357
448 403 167 39 382 -25 510 -152 197 -198 201 -531 7 -716 -107 -101 -225
-144 -376 -136 -70 4 -97 10 -151 37 -88 43 -156 112 -203 208 -36 74 -38 81
-38 177 0 89 3 108 27 159 54 114 162 200 286 226 74 15 100 14 176 -9 135
-42 236 -176 244 -326 4 -62 0 -80 -23 -133 -48 -107 -148 -178 -265 -188
-244 -22 -402 282 -234 451 62 61 166 90 239 66 46 -15 108 -70 125 -110 7
-17 10 -44 6 -63 -12 -66 -119 -136 -206 -137 -72 0 -123 47 -99 93 11 20 11
21 -4 8 -23 -19 -21 -56 4 -80 28 -26 110 -45 157 -36 149 27 240 152 187 254
-21 42 -90 98 -143 115 -128 44 -281 -16 -348 -136 -25 -47 -29 -63 -29 -138
0 -70 5 -95 26 -141 87 -185 318 -244 501 -127 53 33 93 79 129 148 21 40 24
58 24 155 0 104 -2 114 -33 177 -42 86 -129 168 -209 198 -246 93 -534 -58
-592 -311 -44 -191 39 -406 200 -519 80 -56 155 -81 259 -87 324 -19 586 236
584 567 -3 378 -373 668 -749 585z"/>
</g>
</svg>
